<?xml version="1.0" encoding="utf-8"?>
<!-- Generator: Adobe Illustrator 24.0.2, SVG Export Plug-In . SVG Version: 6.00 Build 0)  -->
<svg version="1.1" id="Capa_1" xmlns="http://www.w3.org/2000/svg" xmlns:xlink="http://www.w3.org/1999/xlink" x="0px" y="0px"
	 viewBox="0 0 139 40" style="enable-background:new 0 0 139 40;" xml:space="preserve">
<style type="text/css">
	.st0{fill:#31B34C;}
	.st1{fill:#D41B20;}
	.st2{fill:#025889;}
	.st3{font-family:'Poppins-ExtraLightItalic';}
	.st4{font-size:7.6189px;}
</style>
<g>
	<path class="st0" d="M0.4,27.5c-0.1,0.1,1,1.7,2.7,3.4c1.2,1.2,2.6,2.7,5,3.8c1.9,0.9,3.5,1.2,5.4,1.5c2.5,0.4,4.5,0.4,5,0.4
		c2.3-0.1,4-0.4,5.4-0.8c1.8-0.4,3.5-0.8,5.7-1.9c0.9-0.5,2.9-1.5,5-3.4c1.2-1.1,0.9-1.2,3.1-3.4c0.9-0.9,1.4-1.4,1.9-2.3
		c0.5-0.9,0.8-1.7,1.1-2.7c0.1-0.4,0.3-0.9,0.8-2.7c0.5-1.8,0.7-2.7,0.8-3.1c0.4-2.6-0.2-5-0.4-5c-0.2,0,0,1.2-0.6,3.3
		C41,15.2,41,15.2,40.4,17c-0.7,2-0.6,1.9-0.8,2.3c-0.5,1-1,1.6-1.9,2.7c-0.7,0.8-1.2,1.3-1.9,1.9c-0.7,0.5-1,0.6-1.5,1.1
		c-0.1,0.1-0.7,0.7-1.1,1.5c-0.3,0.6-0.3,0.7-0.8,1.5c-0.4,0.8-0.7,1-0.8,1.1c-0.2,0.3-0.6,0.6-1.1,0.8c-0.3,0.1-0.3,0-1.1,0
		c-0.8,0-1.1,0-1.5,0c-0.1,0-0.2,0-0.3,0c-0.2,0-0.7,0.1-1.2,0.3c-0.2,0.1-0.7,0.3-1.1,0.8c-0.4,0.4-0.3,0.5-0.8,1.1
		c-0.3,0.4-0.6,0.8-1.1,1.1c-0.3,0.2-0.6,0.3-1.1,0.4c-0.7,0.1-1.1,0.2-1.5,0c-0.2-0.1-0.1-0.1-0.4-0.4c-0.1-0.1-0.6-0.6-1.1-0.8
		c-0.4-0.1-0.4,0-1.5,0c-0.8,0-0.9-0.1-1.1,0c-0.5,0.2-0.5,0.4-1.1,0.8c-0.4,0.2-0.8,0.3-1.1,0.4c-0.9,0.2-1.6,0.1-1.9,0
		c-0.5-0.1-0.8-0.2-1.1-0.4c-0.7-0.3-0.8-0.5-1.5-0.8c-0.4-0.2-0.7-0.3-1.1-0.4c-0.8-0.2-1-0.2-1.5-0.4c-0.4-0.1-0.8-0.3-1.5-0.8
		C3.2,29.8,0.6,27.4,0.4,27.5z"/>
	<path class="st1" d="M2,13.4c-0.3-0.1-1.1,1.8-1.5,3.4C0.2,17.6-0.1,19.1,0,21c0.1,1.1,0.2,3,1.5,5c0.9,1.4,2.1,2.2,2.7,2.7
		c0.3,0.2,1.4,1,3.1,1.5c1.3,0.5,3.9,1.1,9.2,0.4c3.4-0.4,6.1-0.8,9.6-2.3c1.8-0.8,5.1-2.5,8.4-5.7c1.8-1.8,3.8-3.9,5-7.3
		c0.3-0.9,0.9-2.7,0.8-5c-0.2-3.5-1.8-6.2-1.9-6.1c-0.1,0,0.4,0.9,0.6,2.5c0.1,0.5,0.2,1.7,0,3.1c-0.3,2.1-1.2,3.5-1.9,4.6
		c-0.9,1.4-2,2.6-3.4,3.8c-4.7,4-10,5.2-13.8,6.1c-1.1,0.3-2.8,0.7-5,0.8c-0.7,0-1.8,0-3.3-0.2c-1-0.2-2.8-0.5-4.6-1.5
		c-0.8-0.5-3.9-2.2-4.8-5.5C1.5,15.4,2.3,13.4,2,13.4z"/>
	<path class="st2" d="M3.9,18c2.7-1.5,5.4-3.1,8-4.6v3.8c2.3-1.3,4.6-2.5,6.9-3.8v3.8c2.3-1.4,4.6-2.8,6.9-4.2v7.3
		c0.4,0,0.8,0,1.1,0c0.4-5.5,0.8-11,1.1-16.4l3.8-0.4c0.3,4.1,0.5,8.2,0.8,12.2c0.5-0.3,1-0.7,1.5-1.1c1.2-1.1,1.9-2.2,2.3-3.1
		c0.3-0.6,0.5-1.3,0.8-1.9C37.4,9,37.6,8,37.5,6.9c-0.3-2.9-2.8-4.6-3.4-5c-1.3-0.8-2.4-1.1-4.6-1.1c-2.2,0-4.3,0-6.5,0
		c-3.6,0.5-11,2-16.1,8C6.2,9.7,5.5,10.6,5,11.5c0,0-0.3,0.4-0.6,0.8c0,0-0.3,0.5-0.6,1.1C3.6,14,3.4,15.8,3.9,18z"/>
</g>
<g>
	<path class="st2" d="M54.9,9.6c3.8,0,6.3,2,7.1,5.2h-2.7c-0.5-1.8-2.1-3-4.3-3c-2.8,0-4.9,2-4.9,5.7c0,3.8,2.1,5.8,4.9,5.8
		c2.3,0,3.8-1.1,4.3-3h2.7c-0.8,3-3.3,5.2-7.1,5.2c-4.4,0-7.4-3.1-7.4-7.9C47.4,12.7,50.5,9.6,54.9,9.6z"/>
	<path class="st2" d="M71.6,9.6c2.8,0,4.8,1.5,5.7,3V9.9h2.6v15.3h-2.6v-2.8c-0.9,1.6-2.9,3.1-5.7,3.1c-4.1,0-7.2-3.2-7.2-7.9
		C64.4,12.7,67.5,9.6,71.6,9.6z M72.1,11.9c-2.8,0-5.2,2-5.2,5.6c0,3.6,2.4,5.7,5.2,5.7c2.8,0,5.2-2.1,5.2-5.7
		C77.3,14,74.9,11.9,72.1,11.9z"/>
	<path class="st2" d="M84.2,9.9h2.5v15.3h-2.5V9.9z M86.8,7.2h-2.7V4.6h2.7V7.2z"/>
	<path class="st2" d="M97.3,9.6c2.8,0,4.8,1.5,5.7,3V9.9h2.6v15.3H103v-2.8c-0.9,1.6-2.9,3.1-5.7,3.1c-4.1,0-7.2-3.2-7.2-7.9
		C90.1,12.7,93.2,9.6,97.3,9.6z M97.8,11.9c-2.8,0-5.2,2-5.2,5.6c0,3.6,2.4,5.7,5.2,5.7c2.8,0,5.2-2.1,5.2-5.7
		C103,14,100.6,11.9,97.8,11.9z"/>
	<path class="st2" d="M115.3,25.4c-3.6,0-6.1-2-6.2-4.7h2.6c0.1,1.5,1.5,2.6,3.6,2.6c2,0,3.1-1,3.1-2.3c0-3.4-9-1.4-9-7.1
		c0-2.3,2.2-4.3,5.6-4.3c3.4,0,5.6,1.8,5.8,4.8h-2.5c-0.1-1.5-1.3-2.6-3.3-2.6c-1.9,0-3,0.9-3,2.1c0,3.6,8.9,1.6,9,7.1
		C120.9,23.5,118.7,25.4,115.3,25.4z"/>
	<path class="st2" d="M130.7,9.6c2.8,0,4.8,1.5,5.7,3V9.9h2.6v15.3h-2.6v-2.8c-0.9,1.6-2.9,3.1-5.7,3.1c-4.1,0-7.2-3.2-7.2-7.9
		C123.5,12.7,126.6,9.6,130.7,9.6z M131.2,11.9c-2.8,0-5.2,2-5.2,5.6c0,3.6,2.4,5.7,5.2,5.7c2.8,0,5.2-2.1,5.2-5.7
		C136.4,14,134,11.9,131.2,11.9z"/>
</g>
<text transform="matrix(1 0 0 1 47.459 35.0439)" class="st2 st3 st4">Complejo Agroindustrial</text>
</svg>
