<?xml version="1.0" encoding="utf-8"?>
<!-- Generator: Adobe Illustrator 26.0.1, SVG Export Plug-In . SVG Version: 6.00 Build 0)  -->
<svg version="1.1" id="Capa_1" xmlns="http://www.w3.org/2000/svg" xmlns:xlink="http://www.w3.org/1999/xlink" x="0px" y="0px"
	 viewBox="0 0 148.7 40" style="enable-background:new 0 0 148.7 40;" xml:space="preserve">
<style type="text/css">
	.st0{fill:#557EC6;}
	.st1{fill:#FFFFFF;}
	.st2{fill:url(#SVGID_1_);}
	.st3{fill:url(#SVGID_00000046300881869976116330000003934899272683810492_);}
	.st4{fill:url(#SVGID_00000163759749368205218880000002901148600733439649_);}
</style>
<g>
	<g>
		<polygon class="st0" points="18.2,0.8 9.8,6.1 9.6,16.8 18.2,22.2 26.8,16.8 26.8,5.9 		"/>
		<polygon class="st0" points="27.3,18 19,23.3 18.8,34 27.3,39.4 36,34 36,23.1 		"/>
		<polygon class="st0" points="9,18 0.7,23.3 0.5,34 9,39.4 17.7,34 17.7,23.1 		"/>
		<path class="st1" d="M15.7,10.1c-2.5,0-4.5,2-4.5,4.3s2.1,4.3,4.5,4.3s4.5-2,4.5-4.3S18.3,10.1,15.7,10.1z M15.7,18.3
			c-2.2,0-4-1.7-4-3.8s1.8-3.8,4-3.8c2.2,0,4,1.7,4,3.8S18,18.3,15.7,18.3z"/>
		<path class="st1" d="M22.3,14.5c0-0.1,0-0.2,0-0.3l1.3-0.3l-0.7-2.6l-1.4,0.3c-0.2-0.4-0.5-0.8-0.8-1.2l0.9-1.1l-2.2-1.7l-1,1.1
			c-0.4-0.2-0.9-0.3-1.4-0.4V7.1h-2.8v1.4c-0.4,0.1-0.9,0.2-1.3,0.4l-0.9-1.1L9.9,9.3l0.8,1.1c-0.2,0.2-0.4,0.5-0.6,0.7l-0.7-0.3
			l0.1,0.3c0,0.1,0,0.1,0,0.2v0.1l1,0.4l0.1-0.2c0.2-0.4,0.5-0.7,0.8-1l0.2-0.2l-0.8-1l1.3-1l0.8,1l0.2-0.1c0.5-0.2,1-0.4,1.6-0.5
			h0.2V7.7h1.7v1.2h0.2c0.6,0.1,1.1,0.3,1.7,0.5l0.3,0.2l0.8-1l1.3,1l-0.8,1l0.2,0.2c0.4,0.4,0.7,0.9,1,1.4l0.1,0.2l1.2-0.3l0.4,1.6
			l-1.2,0.3v0.2c0,0.2,0,0.4,0,0.5c0,0.3,0,0.6-0.1,0.9v0.2l1.2,0.4l-0.6,1.5L21,17.1l-0.1,0.2c-0.2,0.4-0.5,0.7-0.8,1L20,18.5
			l0.7,0.9l-1.3,1l-0.7-0.8l-0.2,0.1C18,20,17.4,20,16.8,20.1h-0.2v1.1h0.1c0.1,0,0.1,0.1,0.2,0.1l0.1,0.1l0.2,0.2v-1
			c0.5-0.1,0.9-0.3,1.4-0.4l0.8,1l2.3-1.6l-0.8-1c0.2-0.2,0.4-0.5,0.6-0.8l1.2,0.4l1-2.5l-1.3-0.4C22.3,15,22.3,14.8,22.3,14.5z"/>
		<path class="st1" d="M15.7,9.7V9.4c-2.9,0-5.2,2.3-5.2,5h0.3C10.8,11.9,13.1,9.7,15.7,9.7z"/>
		<path class="st1" d="M0.6,33.9c0.1,0.1,0.2,0.2,0.3,0.3l0.3-1l3,1.6l-1.3,0.7C3,35.5,3,35.6,3,35.6c0.1,0,0.1,0.1,0.2,0.1L4.6,35
			l4.6,2.5l-1.8,0.9c0.1,0.1,0.2,0.1,0.3,0.2l1.7-0.9l0.3,1.3l0.1-0.1c0.1-0.1,0.2-0.1,0.3-0.2L5.2,20.2c-0.1,0.1-0.3,0.2-0.4,0.3
			L5,21.4l-0.4,0.2l-0.5-0.2l0.2-0.6l-0.1,0.1c-0.1,0-0.1,0-0.2,0.1c-0.1,0-0.2,0.1-0.2,0.1L0.6,33.9C0.5,33.9,0.5,33.9,0.6,33.9
			C0.5,33.9,0.6,33.9,0.6,33.9z M1.4,32.9l3.4-1.8l3.2,1.7l-3.4,1.8L1.4,32.9z M6,25l-1.2,0.6l-1.3-0.7l1.2-0.6L6,25z M3.8,23.5
			L4.7,23l0.9,0.5L4.7,24L3.8,23.5z M6.4,26.8l-1.8,1l-1.7-0.9l1.8-1L6.4,26.8z M7.1,29.5l-2.4,1.2l-2.5-1.3l2.4-1.2L7.1,29.5z
			 M9.3,37.1l-4.4-2.4L8.3,33L9.3,37.1z M8.1,32.4l-2.9-1.6l2.2-1.2L8.1,32.4z M7.2,29.2L4.9,28l1.7-0.9L7.2,29.2z M6.5,26.5
			l-1.4-0.7l1-0.5L6.5,26.5z M6,24.6l-0.9-0.5l0.7-0.4L6,24.6z M5.5,22.6l0.1,0.5l-0.5-0.3L5.5,22.6z M5.2,21.8L5.3,22L5.2,21.8
			L5.2,21.8z M5.2,22.3l-0.5,0.3l-0.5-0.3L4.8,22L5.2,22.3z M4.1,21.8l0.2,0.1L4.1,22V21.8z M3.9,22.6l0.4,0.2l-0.5,0.3L3.9,22.6z
			 M3.6,23.8l0.7,0.4l-0.9,0.4L3.6,23.8z M3.2,25.2l1.2,0.6l-1.6,0.8L3.2,25.2z M2.8,27.2L4.2,28l-2,1.1L2.8,27.2z M2.1,29.7L4.4,31
			l-3.1,1.7L2.1,29.7z"/>
		<path class="st1" d="M9.7,38.9l-0.3-1.3l-1.7,0.9l0,0c-0.1-0.1-0.2-0.2-0.3-0.2l0,0l1.8-0.9L4.6,35l-1.4,0.7l0,0
			c-0.1-0.1-0.1-0.1-0.2-0.1c-0.1,0-0.1-0.1-0.1-0.1l0,0l1.3-0.7l-3-1.6l-0.3,1l0,0c-0.1-0.1-0.2-0.2-0.3-0.3l0,0l0,0H0.5l0,0
			L3.9,21l0,0c0.1,0,0.2-0.1,0.2-0.1c0.1,0,0.1,0,0.2-0.1c0,0,0.1,0,0.1-0.1l0,0l-0.2,0.7l0.5,0.2l0.4-0.2l-0.2-0.9l0,0
			c0.1-0.1,0.3-0.2,0.4-0.3l0,0l0,0l4.9,18.4l0,0c-0.1,0-0.2,0.1-0.3,0.2C9.8,38.8,9.8,38.9,9.7,38.9L9.7,38.9z M9.4,37.6l0.3,1.2
			l0.1-0.1c0.1-0.1,0.2-0.1,0.3-0.2L5.2,20.1c-0.1,0.1-0.2,0.2-0.4,0.3L5,21.3l-0.5,0.2L4,21.3l0.2-0.6c0,0-0.1,0-0.1,0.1
			c-0.1,0-0.1,0-0.2,0.1c-0.1,0-0.1,0.1-0.2,0.1L0.5,33.9l0,0l0,0l0,0l0,0C0.6,34,0.7,34,0.8,34.1l0.3-1l0,0l3,1.6l-1.2,0.8
			c0,0,0.1,0,0.1,0.1c0.1,0,0.1,0.1,0.2,0.1L4.6,35l0,0l4.7,2.5l-1.9,0.9c0.1,0.1,0.2,0.1,0.3,0.2L9.4,37.6z M9.3,37.1l-4.4-2.4
			L8.3,33L9.3,37.1z M4.9,34.8l4.3,2.3l-1.1-4L4.9,34.8z M4.5,34.6L4.5,34.6l-3.2-1.7l3.4-1.9l0,0L8,32.7L4.5,34.6z M1.4,32.9
			l3.1,1.7L8,32.8l-3.1-1.7L1.4,32.9z M1.3,32.6L1.3,32.6l0.8-2.9l0,0L4.4,31L1.3,32.6z M2.1,29.7l-0.8,2.9l3-1.6L2.1,29.7z
			 M8.1,32.5L5.1,31l2.3-1.2L8.1,32.5z M5.2,31l2.9,1.5l-0.7-2.7L5.2,31z M4.8,30.8L4.8,30.8l-2.6-1.4l2.4-1.3l0,0l2.6,1.4L4.8,30.8
			z M2.4,29.4l2.5,1.3l2.3-1.2l-2.5-1.3L2.4,29.4z M7.2,29.2L4.9,28l1.7-0.9L7.2,29.2z M5,28l2.2,1.2l-0.5-2L5,28z M2.3,29.1
			l0.5-1.9l0,0L4.3,28L2.3,29.1z M2.8,27.2L2.3,29l2-1L2.8,27.2z M4.6,27.8l-1.7-0.9l1.9-1l1.7,0.9L4.6,27.8z M2.9,26.9l1.7,0.9
			l1.8-1l-1.7-0.9L2.9,26.9z M2.9,26.6l0.4-1.5l0,0l1.2,0.6L2.9,26.6z M3.2,25.2l-0.3,1.4l1.5-0.8L3.2,25.2z M6.5,26.5l-1.4-0.8
			l1.1-0.6L6.5,26.5z M5.2,25.7l1.3,0.7l-0.3-1.2L5.2,25.7z M4.8,25.7L3.5,25l1.2-0.6L6,25.1L4.8,25.7z M3.5,25l1.3,0.6L5.9,25
			l-1.2-0.7L3.5,25z M6,24.7l-1-0.5l0.8-0.4L6,24.7z M5.1,24.1L6,24.6l-0.2-0.8L5.1,24.1z M3.4,24.7l0.2-0.9l0.7,0.4L3.4,24.7z
			 M3.6,23.8l-0.2,0.8l0.9-0.5L3.6,23.8z M4.7,24l-0.9-0.5L4.7,23l0.9,0.5L4.7,24z M3.8,23.5l0.8,0.4l0.8-0.4l-0.8-0.4L3.8,23.5z
			 M5.6,23.1L5,22.8l0.5-0.2L5.6,23.1z M5.1,22.8l0.5,0.3l-0.2-0.5L5.1,22.8z M3.8,23.1l0.1-0.5l0.4,0.2L3.8,23.1z M3.9,22.6L3.8,23
			l0.5-0.2L3.9,22.6z M4.7,22.6l-0.6-0.3L4.7,22l0.6,0.3L4.7,22.6z M4.2,22.3l0.5,0.3l0.5-0.3L4.7,22L4.2,22.3z M4.1,22l0.1-0.3
			l0.2,0.1L4.1,22z M4.2,21.8V22l0.2-0.1L4.2,21.8z M5.3,22L5,21.9l0.2-0.1L5.3,22z M5.1,21.9L5.3,22v-0.2L5.1,21.9z"/>
		<path class="st1" d="M25.7,34.6l7.2,0.9v0.2c0.1,0,0.2,0,0.3,0v-0.5l0,0l-7.9-1.1l0,0l0,0v0.1v0.1c0,0.2,0,0.5,0,0.7
			c0,0.1,0,0.2,0,0.3v0.1c0,0.1,0,0.3,0,0.4l0,0l6.4,0.7c0.1-0.1,0.2-0.2,0.3-0.3l-6.3-0.7L25.7,34.6z"/>
		<path class="st1" d="M20.8,33c0.1-0.2,0.2-0.4,0.3-0.6c0.4-1,0.6-1.8,0.7-2.4c0.1-0.6,0.2-1.3,0.3-1.9c0.1-0.7,0.1-1.4,0.1-2
			c0.1-0.1,0.3-0.1,0.4-0.1c0.3-0.1,0.6-0.2,0.9-0.2s0.7-0.1,1.2-0.1c0.6,0,1,0.1,1.3,0.2c0.1,0,0.3,0.1,0.4,0.1c0,0.3,0,0.5,0,0.8
			c0,0.3,0,0.8,0.1,1.3c0.1,0.7,0.1,1.1,0.2,1.7c0.1,0.5,0.3,0.9,0.7,1.7c0.3,0.6,0.5,1,0.6,1.2l-2.5-0.4l0,0l0,0c0,0.1,0,0.1,0,0.2
			v0.1c0,0.2,0,0.5,0,0.7c0,0.1,0,0.2,0,0.3v0.1c0,0.1,0,0.3,0,0.4l0,0l7.9,1.1l0,0V35c0-0.2,0-0.5,0-0.7v-0.2c0-0.1,0-0.3,0-0.4
			l0,0l-4.8-0.9c0-0.1-0.1-0.2-0.1-0.3c-0.1-0.2-0.3-0.6-0.6-1.3c-0.3-0.8-0.5-1.2-0.6-1.6c-0.1-0.5-0.2-1-0.2-1.6
			c0-0.5-0.1-1-0.1-1.3s0-0.6,0-1v-0.2l-0.2-0.1c-0.2,0-0.4,0-0.6-0.1c-0.3-0.1-0.8-0.2-1.4-0.2c-0.5,0-0.9,0-1.4,0.1
			c-0.3,0.1-0.7,0.1-1,0.2c-0.2,0.1-0.4,0.2-0.6,0.2l-0.2,0.1V26c0,0.7,0,1.4-0.1,2.2c-0.1,0.6-0.2,1.2-0.3,1.9
			c-0.1,0.6-0.3,1.4-0.7,2.3c-0.1,0.2-0.2,0.4-0.3,0.7c-0.1,0.1-0.1,0.2-0.1,0.2l0,0l0,0c0,0.2,0,0.2,0,0.3l0,0c0,0.1,0,0.1,0,0.2
			c0,0.1,0,0.2,0,0.2s0,0.1,0,0.2c0,0.1,0,0.3,0,0.6l0,0l5.1-0.6l0,0v-1.7l0,0v-0.1L20.8,33z M20.4,33.4l4.5-0.8v1.1l-4.4,0.5
			L20.4,33.4z M25.7,33.8v-1.1l7.2,1.3v0.9L25.7,33.8z"/>
		<path class="st1" d="M25.3,34.2L20,34.8l0,0c0,0.1,0,0.2,0,0.3c0.1,0,0.2,0,0.2,0h0.3l0,0l4.3-0.4v1L21.9,36
			c0,0.1,0.1,0.2,0.1,0.3c0.1,0,0.2,0,0.4,0c0.9-0.1,1.9-0.1,2.8-0.2l0,0l0,0c0-0.1,0-0.3,0-0.4v-0.2C25.3,34.9,25.3,34.5,25.3,34.2
			L25.3,34.2z"/>
		<path class="st1" d="M23.1,24.6L23.1,24.6c0.1,0,0.2-0.1,0.3-0.1c0.2-0.1,0.4-0.1,0.6-0.2c0.2,0,0.4-0.1,0.6-0.1h0.3
			c0.1,0,0.2,0,0.3,0c0.2,0,0.4,0,0.6,0c0.1,0,0.2,0,0.3,0h0.1h0.1c0.1,0,0.2,0,0.3,0.1h0.1h0.1c0.1,0,0.2,0.1,0.3,0.1l0.2,0.1
			c0,0,0,0,0.1,0c0.1,0,0.2,0.1,0.3,0.1l0.2,0.1c0,0,0.1,0,0.2,0.1l0,0c0,0,0,0,0.1,0h0.1c0.1,0,0.1,0,0.2,0h0.1h0.1
			c0.1,0,0.1,0,0.2,0c0.1,0,0.1,0,0.2,0c0,0,0,0,0.1,0l0,0h0.1c0.1,0,0.2,0,0.3,0l0,0c0.2,0,0.5,0,0.7,0c0.1,0,0.1,0,0.2,0l0,0
			c0,0,0,0,0.1,0l0,0l0,0c0,0,0,0,0.1,0c0.1,0,0.2-0.1,0.3-0.1H31c0,0,0,0,0.1,0l0,0c0,0,0,0,0.1,0l0,0h0.1l0,0c0.1,0,0.1,0,0.2-0.1
			c0.1,0,0.1,0,0.2-0.1c0.2-0.1,0.4-0.2,0.6-0.3c0.1-0.1,0.2-0.1,0.3-0.2c0,0,0.1-0.1,0-0.1c0,0-0.1-0.1-0.1,0
			c-0.1,0-0.2,0.1-0.3,0.1c-0.2,0.1-0.4,0.1-0.6,0.1c-0.4,0.1-0.8,0.1-1.2,0.1h-0.2l0,0h-0.1H30l0,0l0,0l0,0c0,0,0,0-0.1,0
			c-0.2,0-0.4-0.1-0.6-0.1h-0.1h-0.1c0,0,0,0-0.1,0c0,0,0,0-0.1,0l0,0h-0.1h-0.1l0,0l0,0c0,0-0.1,0-0.1-0.1l0,0h-0.1
			c-0.1,0-0.2-0.1-0.3-0.1h-0.1H28h-0.1l0,0c-0.1,0-0.2-0.1-0.3-0.1h-0.1h-0.2h-0.1c-0.1,0-0.2,0-0.4-0.1h-0.1h-0.1h-0.1h-0.1
			c-0.1,0-0.2,0-0.4,0c-0.2,0-0.5,0-0.7,0.1c-0.1,0-0.2,0-0.3,0.1c-0.1,0-0.2,0.1-0.3,0.1s-0.1,0-0.2,0h-0.1h-0.1
			c-0.1,0-0.2,0.1-0.3,0.1c-0.2,0.1-0.4,0.2-0.6,0.3C23.4,24.5,23.3,24.5,23.1,24.6L23.1,24.6C23,24.6,23,24.6,23.1,24.6z"/>
		<path class="st1" d="M25.3,23.1L25.3,23.1c0.1,0,0.2,0,0.2-0.1c0.2,0,0.3-0.1,0.5-0.1c0.2,0,0.3,0,0.5,0h0.3c0.1,0,0.2,0,0.3,0
			c0.2,0,0.4,0,0.5,0s0.1,0,0.2,0h0.1H28c0.1,0,0.2,0,0.2,0h0.1h0.1c0.1,0,0.2,0,0.2,0.1h0.2c0,0,0,0,0.1,0s0.2,0,0.2,0.1h0.1h0.1
			l0,0c0,0,0,0,0.1,0h0.1h0.1c0,0,0,0,0.1,0c0,0,0,0,0.1,0l0,0c0.1,0,0.1,0,0.1,0H30c0,0,0,0,0.1,0l0,0c0,0,0,0,0.1,0
			c0.1,0,0.2,0,0.3,0l0,0c0.2,0,0.4,0,0.6,0h0.1l0,0l0,0l0,0l0,0c0.1,0,0.2,0,0.3,0h0.1l0,0l0,0c0,0,0,0,0.1,0l0,0c0,0,0,0,0.1,0
			l0,0c0.1,0,0.1,0,0.1,0h0.1c0.2-0.1,0.3-0.1,0.5-0.2c0.1,0,0.2-0.1,0.2-0.1v-0.1c0,0-0.1-0.1-0.1,0c-0.1,0-0.2,0-0.3,0.1
			c-0.2,0-0.3,0.1-0.5,0.1c-0.3,0-0.7,0.1-1,0.1h-0.1l0,0h-0.1h-0.1l0,0l0,0l0,0l0,0c-0.2,0-0.3,0-0.5-0.1c0,0,0,0-0.1,0h-0.1
			c0,0,0,0-0.1,0c0,0,0,0-0.1,0l0,0h-0.1h-0.1l0,0l0,0h-0.1l0,0h-0.1c-0.1,0-0.2-0.1-0.3-0.1c0,0,0,0-0.1,0h-0.1h-0.1l0,0
			c-0.1,0-0.1,0-0.2,0h-0.1h-0.1c-0.1,0-0.2,0-0.3,0h-0.1h-0.1c-0.1,0-0.2,0-0.3,0c-0.2,0-0.4,0-0.6,0.1c-0.1,0-0.2,0-0.3,0
			s-0.2,0-0.3,0.1h-0.1H26c0,0,0,0-0.1,0c-0.1,0-0.2,0.1-0.3,0.1c-0.2,0.1-0.3,0.1-0.5,0.2c-0.1,0-0.2,0.1-0.2,0.1v0.1
			C25.2,23.1,25.2,23.1,25.3,23.1z"/>
		
			<radialGradient id="SVGID_1_" cx="27.3219" cy="38.5995" r="10.2889" gradientTransform="matrix(1 0 0 1 0 -10)" gradientUnits="userSpaceOnUse">
			<stop  offset="0.3749" style="stop-color:#557EC6"/>
			<stop  offset="0.6338" style="stop-color:#F5F6F8"/>
			<stop  offset="1" style="stop-color:#203369"/>
		</radialGradient>
		<path class="st2" d="M27.3,17.2l-9,5.7v11.4l9,5.7l9-5.7V22.9L27.3,17.2z M35.5,23.4v10.4L27.3,39l-8.2-5.2V23.4l8.2-5.2
			L35.5,23.4z"/>
		
			<radialGradient id="SVGID_00000165913095980316958430000013167695900620948132_" cx="9.0418" cy="38.5995" r="10.2776" gradientTransform="matrix(1 0 0 1 0 -10)" gradientUnits="userSpaceOnUse">
			<stop  offset="0.3749" style="stop-color:#557EC6"/>
			<stop  offset="0.6338" style="stop-color:#F5F6F8"/>
			<stop  offset="1" style="stop-color:#203369"/>
		</radialGradient>
		<path style="fill:url(#SVGID_00000165913095980316958430000013167695900620948132_);" d="M9,17.2l-9,5.7v11.4L9,40l9-5.7V22.9
			L9,17.2z M17.2,23.4v10.4L9,39l-8.2-5.2V23.4L9,18.2L17.2,23.4z"/>
		
			<radialGradient id="SVGID_00000039095521201713470750000008322187833649199523_" cx="18.1818" cy="21.4005" r="10.2889" gradientTransform="matrix(1 0 0 1 0 -10)" gradientUnits="userSpaceOnUse">
			<stop  offset="0.3749" style="stop-color:#557EC6"/>
			<stop  offset="0.6338" style="stop-color:#F5F6F8"/>
			<stop  offset="1" style="stop-color:#203369"/>
		</radialGradient>
		<path style="fill:url(#SVGID_00000039095521201713470750000008322187833649199523_);" d="M18.2,0l-9,5.7v11.4l9,5.7l9-5.7V5.7
			L18.2,0z M26.3,6.2v10.4l-8.2,5.2L10,16.6V6.2L18.2,1L26.3,6.2z"/>
	</g>
	<g>
		<path class="st1" d="M50.6,18.2l3.6-6.9h1.9v8.6h-1.7v-6.9l-3.2,6.9h-1.1l-3.3-6.8v6.8H45v-8.6h1.9L50.6,18.2z"/>
		<path class="st1" d="M65.6,15v0.8h-3.8v3h4.4v0.8h-6.2v-8.6h6.2v0.8h-4.4v3h3.8V15z"/>
		<path class="st1" d="M75.9,11.2V12h-2.6v7.8h-1.8V12h-2.6v-0.8H75.9z"/>
		<path class="st1" d="M85.3,16.8l0.8,2.9h-1.8l-0.5-1.9h-3.7l-0.5,1.9h-1.8l0.8-2.9l1.9-5.6h3L85.3,16.8z M83.5,17l-1.6-5.1
			L80.3,17H83.5z"/>
		<path class="st1" d="M89.1,19.8v-8.6h1.8V19h4.4v0.8C95.4,19.8,89.1,19.8,89.1,19.8z"/>
		<path class="st1" d="M98.4,11.2h3.6c2.1,0,3.2,0.6,3.2,1.7v1.3c0,0.8-0.8,1.3-2.3,1.6c-0.4,0.1-0.9,0.1-1.7,0.1h-0.9v3.9h-1.8
			L98.4,11.2L98.4,11.2z M100.2,12v3h1.1c0.4,0,0.8,0,1,0c0.7-0.1,1.1-0.4,1.1-0.8v-1.3c0-0.6-0.6-0.8-1.7-0.8L100.2,12L100.2,12z"
			/>
		<path class="st1" d="M114.6,16.8l0.8,2.9h-1.8l-0.5-1.9h-3.7l-0.5,1.9H107l0.8-2.9l1.9-5.6h3L114.6,16.8z M112.8,17l-1.6-5.1
			l-1.6,5.1H112.8z"/>
		<path class="st1" d="M125.3,18.3c0,1.1-1.2,1.7-3.5,1.7c-2.3,0-3.5-0.6-3.5-1.7v-5.5c0-1.1,1.2-1.7,3.5-1.7c2.3,0,3.5,0.6,3.5,1.7
			v1h-1.8v-1c0-0.6-0.6-0.8-1.7-0.8l0,0c-1.1,0-1.7,0.3-1.7,0.8v5.5c0,0.6,0.6,0.8,1.7,0.8s1.7-0.3,1.7-0.8v-1h1.8V18.3z"/>
		<path class="st1" d="M132.5,15.5l3.9,4.3h-1.9l-3.8-4v4h-1.8v-8.6h1.8v4.1l3.8-4.1h1.9L132.5,15.5z"/>
	</g>
	<g>
		<path class="st1" d="M40.4,24.7c0.2,0,0.5-0.1,0.9-0.1c0.5,0,0.8,0.1,1,0.2s0.3,0.3,0.3,0.6c0,0.3-0.1,0.4-0.3,0.6
			c-0.3,0.2-0.7,0.3-1.1,0.3c-0.1,0-0.3,0-0.4,0v1.1h-0.5L40.4,24.7L40.4,24.7z M40.9,26c0.1,0,0.2,0,0.4,0c0.6,0,0.9-0.2,0.9-0.6
			s-0.3-0.5-0.9-0.5c-0.2,0-0.4,0-0.4,0V26z"/>
		<path class="st1" d="M43.9,24.7c0.2,0,0.6-0.1,0.9-0.1c0.5,0,0.8,0.1,1.1,0.2c0.2,0.1,0.3,0.3,0.3,0.5c0,0.4-0.3,0.6-0.7,0.7l0,0
			c0.3,0.1,0.5,0.3,0.5,0.6c0.1,0.4,0.2,0.7,0.3,0.8h-0.5c-0.1-0.1-0.1-0.3-0.2-0.7c-0.1-0.4-0.3-0.5-0.7-0.5h-0.6v1.2h-0.5
			L43.9,24.7L43.9,24.7z M44.3,25.9h0.5c0.5,0,0.8-0.2,0.8-0.5c0-0.4-0.3-0.5-0.8-0.5c-0.2,0-0.4,0-0.5,0V25.9z"/>
		<path class="st1" d="M50.6,26c0,1-0.8,1.5-1.7,1.5c-1,0-1.7-0.6-1.7-1.4c0-0.9,0.7-1.5,1.7-1.5C49.9,24.6,50.6,25.2,50.6,26z
			 M47.6,26c0,0.6,0.4,1.1,1.2,1.1s1.2-0.5,1.2-1.1c0-0.6-0.4-1.1-1.2-1.1C48,24.9,47.6,25.4,47.6,26z"/>
		<path class="st1" d="M52.4,27.4v-1.2l-1.2-1.6h0.5l0.5,0.8c0.1,0.2,0.3,0.4,0.4,0.6l0,0c0.1-0.2,0.2-0.4,0.4-0.6l0.5-0.8H54
			l-1.2,1.6v1.2H52.4z"/>
		<path class="st1" d="M56.9,26.1h-1.4v1h1.6v0.3H55v-2.8h2v0.3h-1.5v0.9h1.4V26.1z"/>
		<path class="st1" d="M60.8,27.3c-0.2,0.1-0.5,0.1-1,0.1c-1,0-1.8-0.5-1.8-1.4c0-0.9,0.8-1.5,1.9-1.5c0.5,0,0.7,0.1,0.9,0.1
			l-0.1,0.3c-0.2-0.1-0.4-0.1-0.7-0.1c-0.9,0-1.4,0.4-1.4,1.1S59.1,27,60,27c0.3,0,0.6,0,0.8-0.1L60.8,27.3z"/>
		<path class="st1" d="M62.8,24.9h-1.1v-0.3h2.7v0.3h-1.1v2.5h-0.5V24.9z"/>
		<path class="st1" d="M68.4,26c0,1-0.8,1.5-1.7,1.5c-1,0-1.7-0.6-1.7-1.4c0-0.9,0.7-1.5,1.7-1.5C67.7,24.6,68.4,25.2,68.4,26z
			 M65.5,26c0,0.6,0.4,1.1,1.2,1.1s1.2-0.5,1.2-1.1c0-0.6-0.4-1.1-1.2-1.1C65.9,24.9,65.5,25.4,65.5,26z"/>
		<path class="st1" d="M69.5,27c0.2,0.1,0.5,0.2,0.9,0.2c0.5,0,0.8-0.2,0.8-0.5s-0.2-0.4-0.7-0.6c-0.6-0.2-1-0.4-1-0.8
			c0-0.4,0.5-0.8,1.2-0.8c0.4,0,0.6,0.1,0.8,0.1l-0.1,0.3c-0.1,0-0.4-0.1-0.7-0.1c-0.5,0-0.7,0.2-0.7,0.4c0,0.3,0.2,0.4,0.7,0.5
			c0.6,0.2,0.9,0.4,0.9,0.8s-0.4,0.8-1.3,0.8C69.9,27.3,69.6,27.2,69.5,27L69.5,27z"/>
		<path class="st1" d="M75,27.4v-1.2l-1.2-1.6h0.5l0.5,0.8c0.1,0.2,0.3,0.4,0.4,0.6l0,0c0.1-0.2,0.2-0.4,0.4-0.6l0.5-0.8h0.5
			l-1.1,1.6v1.2H75z"/>
		<path class="st1" d="M82.5,26.2c0-0.4-0.1-0.8-0.1-1.2l0,0c-0.1,0.3-0.3,0.7-0.5,1.1l-0.6,1.3h-0.4l-0.6-1.3
			c-0.2-0.4-0.3-0.7-0.4-1.1l0,0c0,0.3,0,0.8-0.1,1.2l-0.1,1.2h-0.5l0.3-2.8h0.6l0.6,1.3c0.2,0.3,0.3,0.6,0.4,0.9l0,0
			c0.1-0.3,0.2-0.6,0.4-0.9l0.7-1.3h0.6l0.2,2.8h-0.4L82.5,26.2z"/>
		<path class="st1" d="M87.5,26c0,1-0.8,1.5-1.7,1.5c-1,0-1.7-0.6-1.7-1.4c0-0.9,0.7-1.5,1.7-1.5C86.8,24.6,87.5,25.2,87.5,26z
			 M84.6,26c0,0.6,0.4,1.1,1.2,1.1c0.8,0,1.2-0.5,1.2-1.1c0-0.6-0.4-1.1-1.2-1.1C85,24.9,84.6,25.4,84.6,26z"/>
		<path class="st1" d="M88.6,27.4v-2.8h0.5l1.2,1.4c0.3,0.3,0.5,0.6,0.7,0.9l0,0c0-0.4-0.1-0.7-0.1-1.1v-1.2h0.4v2.8h-0.5L89.6,26
			c-0.3-0.3-0.5-0.6-0.7-0.9l0,0c0,0.3,0,0.7,0,1.1v1.2H88.6z"/>
		<path class="st1" d="M93.4,24.9h-1.1v-0.3h2.7v0.3h-1.1v2.5h-0.5V24.9z"/>
		<path class="st1" d="M96.3,26.5l-0.4,0.9h-0.5l1.2-2.8h0.6l1.3,2.8H98l-0.4-0.9H96.3z M97.5,26.2l-0.4-0.8
			c-0.1-0.2-0.1-0.3-0.2-0.5l0,0c-0.1,0.2-0.1,0.3-0.2,0.5l-0.4,0.8H97.5z"/>
		<path class="st1" d="M100.4,24.6h0.5v1.9c0,0.7-0.5,1-1.1,1c-0.2,0-0.4,0-0.5-0.1l0.1-0.3c0.1,0,0.2,0.1,0.4,0.1
			c0.4,0,0.7-0.1,0.7-0.7L100.4,24.6L100.4,24.6z"/>
		<path class="st1" d="M104.1,26.1h-1.4v1h1.6v0.3h-2.1v-2.8h2v0.3h-1.5v0.9h1.4V26.1z"/>
		<path class="st1" d="M105.3,27c0.2,0.1,0.5,0.2,0.9,0.2c0.5,0,0.8-0.2,0.8-0.5s-0.2-0.4-0.7-0.6c-0.6-0.2-1-0.4-1-0.8
			c0-0.4,0.5-0.8,1.2-0.8c0.4,0,0.6,0.1,0.8,0.1l-0.1,0.3c-0.1,0-0.4-0.1-0.7-0.1c-0.5,0-0.7,0.2-0.7,0.4c0,0.3,0.2,0.4,0.7,0.5
			c0.6,0.2,0.9,0.4,0.9,0.8s-0.4,0.8-1.3,0.8C105.7,27.3,105.4,27.2,105.3,27L105.3,27z"/>
		<path class="st1" d="M110.9,24.6v2.8h-0.5v-2.8H110.9z"/>
		<path class="st1" d="M112.2,27.4v-2.8h0.5l1.2,1.4c0.3,0.3,0.5,0.6,0.7,0.9l0,0c0-0.4-0.1-0.7-0.1-1.1v-1.2h0.4v2.8h-0.5l-1.2-1.4
			c-0.3-0.3-0.5-0.6-0.7-0.9l0,0c0,0.3,0,0.7,0,1.1v1.2H112.2z"/>
		<path class="st1" d="M116.3,24.7c0.3,0,0.6-0.1,1-0.1c0.7,0,1.2,0.1,1.5,0.3c0.3,0.2,0.5,0.5,0.5,1s-0.2,0.8-0.5,1.1
			c-0.3,0.3-0.9,0.4-1.6,0.4c-0.3,0-0.6,0-0.9,0V24.7z M116.8,27.1c0.1,0,0.3,0,0.5,0c1,0,1.6-0.4,1.6-1.2c0-0.7-0.5-1.1-1.5-1.1
			c-0.2,0-0.4,0-0.6,0V27.1z"/>
		<path class="st1" d="M121,24.6v1.6c0,0.6,0.4,0.9,0.9,0.9s0.9-0.3,0.9-0.9v-1.6h0.5v1.6c0,0.8-0.6,1.2-1.4,1.2
			c-0.8,0-1.3-0.3-1.3-1.2v-1.6H121z"/>
		<path class="st1" d="M124.5,27c0.2,0.1,0.5,0.2,0.9,0.2c0.5,0,0.8-0.2,0.8-0.5s-0.2-0.4-0.7-0.6c-0.6-0.2-1-0.4-1-0.8
			c0-0.4,0.5-0.8,1.2-0.8c0.4,0,0.6,0.1,0.8,0.1l-0.1,0.3c-0.1,0-0.4-0.1-0.7-0.1c-0.5,0-0.7,0.2-0.7,0.4c0,0.3,0.2,0.4,0.7,0.5
			c0.6,0.2,0.9,0.4,0.9,0.8s-0.4,0.8-1.3,0.8C124.9,27.3,124.6,27.2,124.5,27L124.5,27z"/>
		<path class="st1" d="M128.6,24.9h-1.1v-0.3h2.7v0.3h-1.1v2.5h-0.5V24.9z"/>
		<path class="st1" d="M131.1,24.7c0.2,0,0.6-0.1,0.9-0.1c0.5,0,0.8,0.1,1.1,0.2c0.2,0.1,0.3,0.3,0.3,0.5c0,0.4-0.3,0.6-0.7,0.7l0,0
			c0.3,0.1,0.5,0.3,0.5,0.6c0.1,0.4,0.2,0.7,0.3,0.8H133c-0.1-0.1-0.1-0.3-0.2-0.7c-0.1-0.4-0.3-0.5-0.7-0.5h-0.4v1.2h-0.5v-2.7
			H131.1z M131.6,25.9h0.5c0.5,0,0.8-0.2,0.8-0.5c0-0.4-0.3-0.5-0.8-0.5c-0.2,0-0.4,0-0.5,0V25.9z"/>
		<path class="st1" d="M135,24.6v2.8h-0.5v-2.8H135z"/>
		<path class="st1" d="M137,26.5l-0.4,0.9h-0.5l1.2-2.8h0.6l1.3,2.8h-0.5l-0.4-0.9H137z M138.2,26.2l-0.4-0.8
			c-0.1-0.2-0.1-0.3-0.2-0.5l0,0c-0.1,0.2-0.1,0.3-0.2,0.5l-0.4,0.8H138.2z"/>
		<path class="st1" d="M140.3,24.6h0.5v2.5h1.6v0.3h-2v-2.8H140.3z"/>
		<path class="st1" d="M145.4,26.1H144v1h1.6v0.3h-2.1v-2.8h2v0.3H144v0.9h1.4V26.1z"/>
		<path class="st1" d="M146.6,27c0.2,0.1,0.5,0.2,0.9,0.2c0.5,0,0.8-0.2,0.8-0.5s-0.2-0.4-0.7-0.6c-0.6-0.2-1-0.4-1-0.8
			c0-0.4,0.5-0.8,1.2-0.8c0.4,0,0.6,0.1,0.8,0.1l-0.1,0.3c-0.1,0-0.4-0.1-0.7-0.1c-0.5,0-0.7,0.2-0.7,0.4c0,0.3,0.2,0.4,0.7,0.5
			c0.6,0.2,0.9,0.4,0.9,0.8s-0.4,0.8-1.3,0.8c-0.4,0-0.7-0.1-0.9-0.2L146.6,27z"/>
	</g>
</g>
</svg>
