<?xml version="1.0" encoding="utf-8"?>
<!-- Generator: Adobe Illustrator 24.0.2, SVG Export Plug-In . SVG Version: 6.00 Build 0)  -->
<svg version="1.1" id="Capa_1" xmlns="http://www.w3.org/2000/svg" xmlns:xlink="http://www.w3.org/1999/xlink" x="0px" y="0px"
	 viewBox="0 0 139 40" style="enable-background:new 0 0 139 40;" xml:space="preserve">
<style type="text/css">
	.st0{fill:#DD0B1C;}
	.st1{fill:#898A8D;}
</style>
<g>
	<path class="st0" d="M120.9,19.7c-9.3,0.2-21.6,1.4-21.6,1.4c14.7-0.1,19.9,0.5,21.3,0.7c0.1,0,0.3,0.1,0.4,0.1
		c0.6,0,1.1-0.5,1-1.1C122,20.1,121.5,19.7,120.9,19.7"/>
	<path class="st0" d="M99.1,21.1C71.3,21.8,41,28,41,28c-1,0.2-1.7,1-1.7,2c0,1.1,0.8,1.9,1.9,2c0,0,0,0,0,0s0,0,0.1,0
		c0,0,0.1,0,0.1,0c0.2,0,0.3,0,0.5-0.1v0c0.1,0,0.2-0.1,0.4-0.1c2.6-0.4,9.7-1.2,19.4-0.7c0,0-5.9-1.2-11.9-1.3
		C69.1,25.1,99.1,21.1,99.1,21.1"/>
	<path class="st1" d="M69.1,33.5v3c0,0.2,0,0.3-0.2,0.5c-0.1,0.1-0.2,0.2-0.4,0.2c-0.2,0-0.3-0.1-0.4-0.2c-0.1-0.1-0.2-0.3-0.2-0.5
		v-8.4c0-0.2,0-0.4,0.2-0.5c0.1-0.1,0.3-0.2,0.5-0.2h2.3c0.6,0,1.1,0.1,1.6,0.4c0.5,0.3,0.8,0.6,1.1,1.1c0.2,0.5,0.4,1,0.4,1.5
		c0,0.5-0.1,1-0.4,1.5c-0.3,0.5-0.6,0.8-1.1,1.1c-0.5,0.3-1,0.4-1.6,0.4H69.1z M69.1,28.5v4h1.7c0.3,0,0.5-0.1,0.8-0.2
		c0.2-0.1,0.4-0.2,0.6-0.4c0.2-0.2,0.3-0.4,0.4-0.6c0.1-0.2,0.1-0.5,0.1-0.8c0-0.3-0.1-0.7-0.2-1c-0.1-0.3-0.4-0.5-0.7-0.7
		c-0.3-0.2-0.7-0.3-1.1-0.3H69.1z"/>
	<path class="st1" d="M80.7,30.4v6.2c0,0.2-0.1,0.3-0.2,0.4c-0.1,0.1-0.2,0.1-0.4,0.1c-0.1,0-0.3-0.1-0.4-0.1
		c-0.1-0.1-0.2-0.2-0.2-0.4v-0.5h0c-0.5,0.7-1.2,1.1-1.9,1.1c-0.6,0-1.2-0.2-1.7-0.5c-0.5-0.3-0.8-0.8-1.1-1.3
		c-0.3-0.6-0.4-1.2-0.4-1.8c0-0.6,0.1-1.2,0.4-1.8c0.2-0.6,0.6-1,1.1-1.4c0.5-0.3,1-0.5,1.7-0.5c0.7,0,1.4,0.3,1.9,1h0v-0.4
		c0-0.2,0-0.3,0.2-0.4c0.1-0.1,0.2-0.1,0.4-0.1c0.2,0,0.3,0,0.4,0.1C80.7,30.1,80.7,30.2,80.7,30.4 M75.7,33.5
		c0,0.7,0.2,1.3,0.5,1.8c0.3,0.5,0.8,0.8,1.5,0.8c0.4,0,0.8-0.1,1.1-0.4c0.3-0.3,0.5-0.6,0.6-1c0.1-0.4,0.2-0.8,0.2-1.3
		c0-0.4-0.1-0.9-0.2-1.3c-0.1-0.4-0.3-0.7-0.6-1c-0.3-0.3-0.7-0.4-1.1-0.4c-0.5,0-0.8,0.1-1.1,0.4c-0.3,0.3-0.5,0.6-0.6,1
		C75.8,32.6,75.7,33.1,75.7,33.5"/>
	<path class="st1" d="M82.3,36.5v-6.1c0-0.2,0.1-0.3,0.1-0.5c0.1-0.1,0.3-0.2,0.4-0.2c0.2,0,0.3,0.1,0.4,0.2
		c0.1,0.1,0.2,0.3,0.2,0.5v0.6h0c0.1-0.2,0.2-0.4,0.4-0.6c0.2-0.2,0.4-0.4,0.6-0.5c0.2-0.1,0.4-0.2,0.6-0.2c0.2,0,0.4,0.1,0.5,0.2
		c0.1,0.1,0.2,0.3,0.2,0.4c0,0.3-0.2,0.6-0.7,0.7c-0.3,0-0.5,0.1-0.7,0.3c-0.2,0.1-0.4,0.4-0.6,0.7c-0.2,0.3-0.2,0.7-0.2,1.1v3.4
		c0,0.2,0,0.3-0.2,0.5c-0.1,0.1-0.3,0.2-0.4,0.2c-0.2,0-0.3-0.1-0.4-0.2C82.3,36.9,82.3,36.7,82.3,36.5"/>
	<path class="st1" d="M92.4,30.4v6.2c0,0.2-0.1,0.3-0.2,0.4c-0.1,0.1-0.2,0.1-0.4,0.1c-0.1,0-0.3-0.1-0.4-0.1
		c-0.1-0.1-0.2-0.2-0.2-0.4v-0.5h0c-0.5,0.7-1.1,1.1-1.9,1.1c-0.6,0-1.2-0.2-1.7-0.5c-0.5-0.3-0.8-0.8-1.1-1.3
		c-0.2-0.6-0.4-1.2-0.4-1.8c0-0.6,0.1-1.2,0.4-1.8c0.2-0.6,0.6-1,1.1-1.4c0.5-0.3,1-0.5,1.7-0.5c0.7,0,1.4,0.3,1.9,1h0v-0.4
		c0-0.2,0.1-0.3,0.2-0.4c0.1-0.1,0.2-0.1,0.4-0.1c0.1,0,0.3,0,0.4,0.1C92.3,30.1,92.4,30.2,92.4,30.4 M87.3,33.5
		c0,0.7,0.2,1.3,0.5,1.8c0.3,0.5,0.8,0.8,1.5,0.8c0.5,0,0.8-0.1,1.1-0.4c0.3-0.3,0.5-0.6,0.6-1c0.1-0.4,0.2-0.8,0.2-1.3
		c0-0.4-0.1-0.9-0.2-1.3c-0.1-0.4-0.3-0.7-0.6-1c-0.3-0.3-0.7-0.4-1.1-0.4c-0.4,0-0.8,0.1-1.1,0.4c-0.3,0.3-0.5,0.6-0.6,1
		C87.4,32.6,87.3,33.1,87.3,33.5"/>
	<path class="st1" d="M99.7,30.4v6.2c0,0.7-0.1,1.3-0.4,1.8c-0.3,0.5-0.6,0.9-1.1,1.2c-0.5,0.3-1.1,0.4-1.7,0.4
		c-0.4,0-0.8-0.1-1.2-0.2c-0.4-0.1-0.8-0.3-1.1-0.5c-0.3-0.2-0.4-0.4-0.4-0.6c0-0.1,0-0.3,0.1-0.4c0.1-0.1,0.2-0.2,0.4-0.2
		c0.1,0,0.3,0.1,0.7,0.3c0.3,0.2,0.5,0.3,0.8,0.4c0.2,0.1,0.5,0.1,0.9,0.1c0.5,0,0.9-0.1,1.1-0.3c0.3-0.2,0.5-0.5,0.6-0.8
		c0.1-0.3,0.2-0.7,0.2-1.1v-0.6h0c-0.2,0.3-0.4,0.6-0.7,0.8c-0.3,0.2-0.7,0.3-1.1,0.3c-0.6,0-1.2-0.2-1.7-0.5
		c-0.5-0.3-0.8-0.8-1.1-1.3c-0.3-0.6-0.4-1.2-0.4-1.8c0-0.6,0.1-1.2,0.4-1.8c0.2-0.6,0.6-1,1.1-1.4c0.5-0.3,1-0.5,1.7-0.5
		c0.2,0,0.5,0,0.7,0.1c0.2,0.1,0.4,0.2,0.6,0.3c0.2,0.1,0.3,0.3,0.4,0.4h0v-0.3c0-0.2,0.1-0.3,0.2-0.4c0.1-0.1,0.3-0.1,0.5-0.1
		c0.1,0,0.3,0,0.4,0.1C99.7,30.1,99.7,30.2,99.7,30.4 M94.8,33.5c0,0.7,0.2,1.3,0.5,1.8c0.3,0.5,0.8,0.8,1.5,0.8
		c0.5,0,0.8-0.1,1.1-0.4c0.3-0.3,0.5-0.6,0.6-1c0.1-0.4,0.2-0.8,0.2-1.3c0-0.4-0.1-0.9-0.2-1.3c-0.1-0.4-0.3-0.7-0.6-1
		c-0.3-0.3-0.7-0.4-1.1-0.4c-0.5,0-0.8,0.1-1.1,0.4c-0.3,0.3-0.5,0.6-0.6,1C94.9,32.6,94.8,33.1,94.8,33.5"/>
	<path class="st1" d="M101.4,34.3v-3.8c0-0.2,0-0.3,0.2-0.5c0.1-0.1,0.2-0.2,0.4-0.2c0.2,0,0.3,0.1,0.4,0.2c0.1,0.1,0.2,0.3,0.2,0.5
		v3.8c0,0.6,0.1,1.1,0.4,1.4c0.3,0.3,0.7,0.5,1.2,0.5c0.4,0,0.7-0.1,0.9-0.2c0.2-0.1,0.4-0.4,0.5-0.6c0.1-0.3,0.2-0.6,0.2-1v-3.8
		c0-0.2,0-0.3,0.2-0.5c0.1-0.1,0.2-0.2,0.4-0.2c0.2,0,0.3,0.1,0.4,0.2c0.1,0.1,0.2,0.3,0.2,0.5v3.8c0,1-0.3,1.7-0.8,2.2
		c-0.5,0.5-1.2,0.7-2,0.7c-0.4,0-0.7-0.1-1.1-0.2c-0.3-0.1-0.6-0.3-0.9-0.5c-0.3-0.2-0.5-0.5-0.6-0.9
		C101.4,35.3,101.4,34.8,101.4,34.3"/>
	<path class="st1" d="M114.4,30.4v6.2c0,0.2-0.1,0.3-0.2,0.4c-0.1,0.1-0.2,0.1-0.4,0.1c-0.1,0-0.3-0.1-0.4-0.1
		c-0.1-0.1-0.2-0.2-0.2-0.4v-0.5h0c-0.5,0.7-1.2,1.1-1.9,1.1c-0.6,0-1.2-0.2-1.7-0.5c-0.5-0.3-0.8-0.8-1.1-1.3
		c-0.2-0.6-0.4-1.2-0.4-1.8c0-0.6,0.1-1.2,0.4-1.8c0.3-0.6,0.6-1,1.1-1.4c0.5-0.3,1-0.5,1.7-0.5c0.7,0,1.4,0.3,1.9,1h0v-0.4
		c0-0.2,0.1-0.3,0.2-0.4c0.1-0.1,0.2-0.1,0.4-0.1c0.1,0,0.3,0,0.4,0.1C114.4,30.1,114.4,30.2,114.4,30.4 M109.4,33.5
		c0,0.7,0.2,1.3,0.5,1.8c0.3,0.5,0.8,0.8,1.5,0.8c0.4,0,0.8-0.1,1.1-0.4c0.3-0.3,0.5-0.6,0.6-1c0.1-0.4,0.2-0.8,0.2-1.3
		c0-0.4-0.1-0.9-0.2-1.3c-0.1-0.4-0.4-0.7-0.6-1c-0.3-0.3-0.7-0.4-1.1-0.4c-0.5,0-0.8,0.1-1.1,0.4c-0.3,0.3-0.5,0.6-0.6,1
		C109.5,32.6,109.4,33.1,109.4,33.5"/>
	<path class="st1" d="M117.6,36.8l-2-5.8c-0.1-0.3-0.2-0.5-0.2-0.7c0-0.1,0-0.3,0.2-0.4c0.1-0.1,0.2-0.1,0.4-0.1
		c0.1,0,0.3,0,0.4,0.1c0.1,0.1,0.2,0.2,0.2,0.3l1.6,4.9h0l1.6-4.9c0.1-0.3,0.3-0.4,0.6-0.4c0.1,0,0.3,0,0.4,0.1
		c0.1,0.1,0.2,0.2,0.2,0.4c0,0.1-0.1,0.3-0.2,0.7l-3,8.6c-0.1,0.3-0.3,0.4-0.6,0.4c-0.1,0-0.3-0.1-0.4-0.1c-0.1-0.1-0.2-0.2-0.2-0.4
		c0-0.1,0.1-0.3,0.2-0.7L117.6,36.8z"/>
	<path class="st1" d="M16.9,2.9c0-1.6,1.2-2.4,2.4-2.4h6c3.7,0,7.3,2.4,7.3,7.3c0,4.2-2.6,7.2-7.2,7.2h-3.7v4.5c0,1.7-1,2.6-2.4,2.6
		c-1.4,0-2.4-0.9-2.4-2.6V2.9z M21.8,10.6h2.6c2.1,0,3.2-1.4,3.2-2.9c0-1.9-1.3-2.9-3.2-2.9h-2.6V10.6z"/>
	<path class="st1" d="M37.2,4.4C38.1,2,38.9,0,41.3,0c2.5,0,3.2,2,4.1,4.4L50.1,17c0.6,1.7,0.7,2.3,0.7,3c0,1.2-1,2-2.3,2
		c-1.6,0-2.1-1-2.5-2.4l-0.6-1.9h-8l-0.6,1.9c-0.4,1.4-1,2.4-2.5,2.4c-1.4,0-2.3-0.8-2.3-2c0-0.7,0.1-1.3,0.7-3L37.2,4.4z M41.4,5.4
		L41.4,5.4l-2.7,7.8h5.1L41.4,5.4z"/>
	<path class="st1" d="M53.1,2.9c0-1.6,1.2-2.4,2.4-2.4h5.8c4.3,0,7.1,2.6,7.1,6.6c0,3.1-1.9,5.4-5,6l4.2,4.6c0.7,0.7,1,1.3,1,2.1
		c0,0.7-0.6,2.2-2.5,2.2c-1.3,0-1.7-0.5-2.3-1.2l-6-7.5h-0.1v6.1c0,1.7-1,2.6-2.4,2.6c-1.4,0-2.4-0.9-2.4-2.6V2.9z M57.9,9.7h3.2
		c1.6,0,2.5-1,2.5-2.4c0-1.4-1.1-2.3-2.5-2.3h-3.2V9.7z"/>
	<path class="st1" d="M107.4,19.2l0.5-1.5h8l0.4,1.2c1.7-0.1,3.4-0.1,4.9-0.2c-0.1-0.4-0.3-0.9-0.6-1.7l-4.7-12.6
		C115.1,2,114.3,0,111.8,0c-2.4,0-3.2,2-4,4.4L103.1,17c-0.5,1.3-0.6,1.9-0.7,2.5C104.2,19.4,106,19.3,107.4,19.2 M111.9,5.4
		L111.9,5.4l2.5,7.8h-5.1L111.9,5.4z"/>
	<path class="st1" d="M92.9,17.4c-2.5,0-4-1.2-5.2-1.2c-1.5,0-2.3,1.3-2.3,2.6c0,0.7,0.4,1.3,0.9,1.7c3.7-0.3,6.9-0.6,8.3-0.6
		c1.1,0,2.8-0.1,4.6-0.2c0.9-1.1,1.5-2.6,1.5-4.5c0-4-2.5-5.4-5.2-6.3c-3.4-1.1-4.5-1.3-4.5-2.5c0-1.1,0.9-1.7,2.2-1.7
		c2.1,0,2.6,0.8,4.1,0.8c1.3,0,2.2-1,2.2-2.3c0-1.9-2.2-3.2-6-3.2c-4,0-7.7,2.2-7.7,6.8c0,3.9,2.6,4.9,5.1,5.8
		c2.8,0.9,4.6,1.2,4.6,2.8C95.5,16.5,94.8,17.4,92.9,17.4"/>
	<path class="st1" d="M73.3,21.7c3.2-0.3,6.8-0.7,10.3-1c0.2-0.3,0.3-0.7,0.3-1.2c0-1.4-0.9-2.3-2.4-2.3h-5.2v-4h4.6
		c1.5,0,2.4-0.9,2.4-2.2c0-1.4-0.9-2.3-2.4-2.3h-4.6V5h5c1.5,0,2.4-0.8,2.4-2.2c0-1.3-0.9-2.2-2.4-2.2h-7.4c-1.3,0-2.4,0.9-2.4,2.4
		v16.5C71.4,20.7,72.2,21.5,73.3,21.7"/>
</g>
</svg>
