<?xml version="1.0" encoding="utf-8"?>
<!-- Generator: Adobe Illustrator 24.0.2, SVG Export Plug-In . SVG Version: 6.00 Build 0)  -->
<svg version="1.1" id="Capa_1" xmlns="http://www.w3.org/2000/svg" xmlns:xlink="http://www.w3.org/1999/xlink" x="0px" y="0px"
	 viewBox="0 0 139 40" style="enable-background:new 0 0 139 40;" xml:space="preserve">
<style type="text/css">
	.st0{fill:#B2DDF3;}
	.st1{fill:#FFDF00;}
	.st2{fill:#F4960E;}
	.st3{fill:#E41067;}
	.st4{fill:#87B608;}
	.st5{fill:#009CDA;}
	.st6{fill:#044F91;}
</style>
<g>
	<path class="st0" d="M60.8,40C43.5,38.6,31,33.3,31,27c0-5,8.1-9.9,20.1-12.4C36.5,16.4,26.1,21,26.1,27
		C26.1,33.9,41.1,39.4,60.8,40 M78.2,40c17.3-1.4,29.8-6.7,29.8-13c0-5-8.1-9.9-20.1-12.4c14.6,1.9,24.9,6.5,24.9,12.4
		C112.9,33.9,97.9,39.4,78.2,40"/>
	<path class="st1" d="M73.2,17.5c0,1.8-1.7,3.2-3.7,3.2c-2.1,0-3.7-1.4-3.7-3.2c0-1.8,1.7-3.2,3.7-3.2
		C71.6,14.3,73.2,15.7,73.2,17.5"/>
	<path class="st2" d="M71.3,2.2C70.7,1,70.2,0,69.5,0c-0.7,0-1.2,1-1.8,2.2c-0.6,1.2-1.2,2.6-1.2,3.5h0c0,1.4,1.3,2.6,3,2.6
		c1.7,0,3-1.2,3-2.6h0C72.5,4.8,72,3.4,71.3,2.2"/>
	<path class="st3" d="M55.1,8.6c-1.5-0.1-2.7-0.3-3.1,0.3c-0.4,0.5,0.4,1.4,1.3,2.5c0.9,1.1,2,2.2,2.9,2.6l0,0
		c1.4,0.7,3.3,0.3,4.1-0.9c0.8-1.2,0.3-2.8-1.1-3.5l0,0C58.3,9,56.6,8.7,55.1,8.6"/>
	<path class="st4" d="M85.8,11.3c0.9-1.1,1.6-1.9,1.3-2.4c-0.4-0.5-1.6-0.4-3.1-0.3c-1.5,0.1-3.2,0.4-4.1,0.9l0,0
		c-1.4,0.7-1.9,2.3-1.1,3.5c0.8,1.2,2.7,1.7,4.1,0.9v0C83.7,13.5,84.9,12.4,85.8,11.3"/>
	<path class="st5" d="M76.8,12.8c0.6-0.9,1.1-2.7,1.2-4.2c0.2-1.6,0.4-2.8-0.4-3.2c-0.8-0.4-1.9,0.4-3.5,1.3c-1.5,0.9-3.1,2.1-3.7,3
		l0,0c-1,1.5-0.4,3.4,1.3,4.2C73.6,14.8,75.8,14.3,76.8,12.8L76.8,12.8 M68.5,9.7c-0.6-0.9-2.2-2.1-3.7-3c-1.5-0.9-2.7-1.7-3.4-1.3
		c-0.8,0.4-0.6,1.6-0.4,3.2c0.2,1.6,0.6,3.3,1.2,4.2l0,0c1,1.5,3.2,2,5,1.1C68.9,13.1,69.5,11.2,68.5,9.7L68.5,9.7L68.5,9.7
		 M61.1,14.4c-1.2,0-3.2,0.5-4.9,1.2c-1.7,0.7-3.1,1.1-3.1,1.9c0,0.7,1.4,1.2,3.1,1.9c1.7,0.7,3.7,1.2,4.9,1.2v0
		c2,0,3.6-1.4,3.6-3.1C64.8,15.8,63.1,14.4,61.1,14.4L61.1,14.4 M77.9,20.6c1.2,0,3.2-0.5,4.9-1.2c1.7-0.7,3.1-1.1,3.1-1.9
		c0-0.7-1.4-1.2-3.1-1.9c-1.7-0.7-3.7-1.2-4.9-1.2v0c-2,0-3.6,1.4-3.6,3.1C74.2,19.2,75.9,20.6,77.9,20.6L77.9,20.6 M26.1,0"/>
	<g>
		<g>
			<path class="st6" d="M64.2,24c0.1-0.1,0.1-0.1,0.2-0.2c0.9-1.2,2.4-1.4,3.7-1c0.5,0.2,0.9,0.5,1.1,1c0,0,0,0.1,0.1,0.1
				c0,0,0,0,0,0c0,0,0.1-0.1,0.1-0.1c0.7-1,1.7-1.4,2.9-1.2c0.3,0,0.6,0.1,0.9,0.2c1,0.3,1.4,1.1,1.6,2c0,0.3,0.1,0.6,0.1,0.9
				c0,1.6,0,3.3,0,4.9c0,0.1,0,0.1,0,0.2c0,0.2-0.1,0.3-0.4,0.3c-0.5,0-1,0-1.6,0c-0.3,0-0.4-0.1-0.4-0.4c0-1.5,0-3.1,0-4.6
				c0-0.3,0-0.5-0.1-0.8c-0.1-0.6-0.5-0.9-1.1-0.9c-0.2,0-0.5,0-0.7,0c-0.6,0.1-0.9,0.6-1,1.2c-0.1,0.3-0.1,0.7-0.1,1
				c0,1.4,0,2.7,0,4.1c0,0.4-0.1,0.5-0.5,0.5c-0.5,0-0.9,0-1.4,0c-0.3,0-0.4-0.1-0.4-0.4c0-1.5,0-3.1,0-4.6c0-0.3,0-0.5-0.1-0.8
				c-0.1-0.7-0.5-1-1.2-1c-0.9,0-1.6,0.6-1.7,1.5c0,0.2,0,0.4,0,0.7c0,1.4,0,2.8,0,4.2c0,0.4-0.1,0.5-0.5,0.5c-0.5,0-0.9,0-1.4,0
				c-0.3,0-0.4-0.1-0.4-0.4c0-2.5,0-5,0-7.5c0-0.3,0.1-0.4,0.4-0.4c0.4,0,0.9,0,1.3,0c0.3,0,0.4,0.1,0.4,0.4c0,0.2,0,0.4,0,0.5
				C64.1,23.8,64.2,23.9,64.2,24z"/>
			<path class="st6" d="M40.8,30.2c0,0.1,0,0.2,0,0.2c0,1.1,0,2.2,0,3.4c0,0.3-0.1,0.4-0.4,0.4c-0.5,0-0.9,0-1.4,0
				c-0.3,0-0.4-0.1-0.4-0.4c0-3.5,0-7,0-10.5c0-0.3,0.1-0.4,0.4-0.4c0.4,0,0.9,0,1.3,0c0.3,0,0.4,0.1,0.4,0.5c0,0.2,0,0.4,0,0.6
				c0,0,0,0,0.1,0c0,0,0-0.1,0-0.1c0.5-0.7,1.2-1.1,2.1-1.2c0.9-0.1,1.8,0.1,2.5,0.7c0.7,0.6,1.2,1.3,1.4,2.2
				c0.3,1.3,0.3,2.7-0.3,3.9c-0.5,1.1-1.3,1.8-2.5,1.9c-1.2,0.2-2.3-0.1-3.1-1.1C40.9,30.2,40.9,30.2,40.8,30.2z M40.7,27.1
				c0,0.5,0.1,1,0.2,1.4c0.3,0.8,0.9,1.2,1.8,1.2c0.9,0,1.5-0.4,1.8-1.3c0.3-0.9,0.3-1.9,0-2.8c-0.3-0.8-1-1.3-1.8-1.3
				c-0.9,0-1.5,0.5-1.8,1.4C40.8,26.1,40.7,26.6,40.7,27.1z"/>
			<path class="st6" d="M52.9,30.4C52.9,30.4,52.9,30.5,52.9,30.4c-1,0.9-2.1,1.1-3.3,1c-0.5,0-0.9-0.2-1.3-0.4
				c-0.7-0.4-1-1-1.1-1.8c0-0.4,0-0.8,0.1-1.2c0.2-0.7,0.8-1.2,1.5-1.4c0.6-0.2,1.2-0.2,1.7-0.3c0.4-0.1,0.9-0.1,1.3-0.2
				c0.1,0,0.1,0,0.2,0c0.6-0.2,0.8-0.4,0.7-0.9c0-0.5-0.3-0.9-0.8-1c-0.4-0.1-0.9-0.1-1.3,0c-0.4,0.1-0.7,0.4-0.9,0.8
				c-0.1,0.3-0.2,0.4-0.5,0.4c-0.5,0-1,0-1.5,0c-0.3,0-0.4-0.1-0.3-0.4c0.2-1.1,0.9-1.7,1.9-2.1c0.9-0.3,1.8-0.3,2.7-0.3
				c0.5,0,1,0.1,1.5,0.3c0.7,0.3,1.2,0.7,1.4,1.4c0.1,0.2,0.1,0.5,0.1,0.7c0,1.5,0,3.1,0,4.6c0,0.4,0.1,0.9,0.2,1.3
				c0,0.2,0,0.3-0.2,0.3c-0.6,0-1.1,0-1.7,0c-0.2,0-0.3-0.1-0.4-0.3C53,30.8,53,30.6,52.9,30.4z M52.9,27.2
				c-0.3,0.1-0.5,0.2-0.7,0.2c-0.3,0.1-0.6,0.1-1,0.2c-0.4,0.1-0.8,0.1-1.1,0.4c-0.4,0.3-0.5,0.7-0.4,1.1c0.1,0.4,0.3,0.7,0.8,0.8
				c0.3,0.1,0.6,0.1,0.9,0.1c0.7,0,1.2-0.3,1.4-1C52.9,28.3,52.8,27.7,52.9,27.2z"/>
			<path class="st6" d="M81,30.4c-0.1,0.1-0.2,0.2-0.4,0.3c-0.5,0.3-1,0.5-1.5,0.6c-0.6,0.1-1.2,0.1-1.9,0c-1.2-0.3-1.9-1.2-1.9-2.4
				c0-1.2,0.6-2,1.8-2.3c0.7-0.2,1.4-0.2,2.1-0.3c0.4-0.1,0.7-0.1,1.1-0.2c0.3-0.1,0.6-0.3,0.6-0.7c0-0.4-0.1-0.8-0.5-1
				c-0.6-0.2-1.2-0.2-1.8,0c-0.3,0.1-0.5,0.4-0.6,0.7c-0.1,0.3-0.1,0.4-0.5,0.4c-0.5,0-1,0-1.4,0c-0.3,0-0.4-0.1-0.4-0.4
				c0.2-1,0.8-1.6,1.7-2c0.5-0.2,1.1-0.3,1.6-0.4c0.9-0.1,1.8,0,2.6,0.3c0.2,0.1,0.4,0.2,0.6,0.3c0.7,0.4,1,1,1,1.7
				c0,1.5,0,2.9,0,4.4c0,0.6,0,1.1,0.2,1.7c0,0.2,0,0.2-0.2,0.2c-0.6,0-1.2,0-1.8,0c-0.2,0-0.3-0.1-0.3-0.3
				C81.1,30.8,81.1,30.6,81,30.4z M80.9,27.2c-0.3,0.1-0.7,0.2-1,0.3c-0.2,0.1-0.5,0.1-0.7,0.1c-0.4,0.1-0.8,0.1-1.1,0.4
				c-0.4,0.3-0.5,0.6-0.5,1.1c0.1,0.5,0.3,0.7,0.8,0.8c0.3,0.1,0.6,0.1,0.9,0.1c0.7-0.1,1.2-0.4,1.5-1C81,28.3,80.9,27.7,80.9,27.2z
				"/>
			<path class="st6" d="M92.7,30.4c-0.1,0.1-0.2,0.2-0.4,0.3c-0.5,0.4-1.1,0.6-1.7,0.7c-0.7,0.1-1.4,0.1-2.1-0.2
				c-0.9-0.4-1.5-1.1-1.5-2.2c0-0.3,0-0.6,0.1-0.9c0.2-0.8,0.8-1.3,1.5-1.5c0.6-0.2,1.2-0.2,1.7-0.3c0.5-0.1,1-0.2,1.5-0.2
				c0,0,0,0,0,0c0.5-0.2,0.8-0.4,0.7-0.9c0-0.6-0.3-0.9-0.8-1c-0.4-0.1-0.9-0.1-1.3,0c-0.4,0.1-0.7,0.4-0.9,0.8
				c-0.1,0.3-0.1,0.4-0.5,0.4c-0.5,0-1,0-1.5,0c-0.3,0-0.4-0.1-0.4-0.4c0.2-1.1,0.9-1.7,2-2.1c0.8-0.3,1.7-0.3,2.6-0.3
				c0.6,0,1.1,0.1,1.7,0.4c0.7,0.3,1.2,0.8,1.3,1.6c0,0.2,0,0.4,0,0.5c0,1.2,0,2.4,0,3.6c0,0.8,0,1.5,0.2,2.3c0,0.1,0,0.2-0.2,0.2
				c-0.6,0-1.2,0-1.8,0c-0.2,0-0.3-0.1-0.3-0.3C92.8,30.8,92.8,30.6,92.7,30.4z M92.7,27.2c-0.4,0.1-0.7,0.2-1,0.3
				c-0.3,0.1-0.5,0.1-0.8,0.1c-0.4,0.1-0.8,0.1-1.1,0.4c-0.4,0.3-0.5,0.7-0.5,1.2c0.1,0.4,0.3,0.7,0.8,0.8c0.3,0.1,0.6,0.1,0.9,0.1
				c0.8,0,1.4-0.5,1.5-1.3C92.7,28.1,92.6,27.6,92.7,27.2z"/>
			<path class="st6" d="M96.5,27.1c0-0.8,0-1.5,0-2.3c0-0.3-0.1-0.5-0.5-0.5c-0.2,0-0.4,0-0.6,0c-0.2,0-0.4-0.1-0.4-0.3
				c0-0.3,0-0.5,0-0.8c0-0.2,0.1-0.3,0.4-0.3c0.2,0,0.4,0,0.6,0c0.3,0,0.4-0.1,0.4-0.4c0-0.5,0-1.1,0-1.6c0-0.3,0.1-0.4,0.4-0.5
				c0.5,0,0.9,0,1.4,0c0.3,0,0.4,0.1,0.4,0.4c0,0.5,0,1.1,0,1.6c0,0.3,0.1,0.5,0.5,0.5c0.3,0,0.5,0,0.8,0c0.3,0,0.4,0.1,0.4,0.4
				c0,0.3,0,0.5,0,0.8c0,0.2-0.1,0.4-0.3,0.4c-0.3,0-0.6,0-0.8,0c-0.4,0-0.5,0.1-0.5,0.5c0,1.2,0,2.4,0,3.6c0,0.2,0,0.3,0,0.5
				c0.1,0.4,0.3,0.5,0.7,0.5c0.2,0,0.5,0,0.7,0c0.2,0,0.2,0,0.2,0.2c0,0.4,0,0.8,0,1.2c0,0.2-0.1,0.3-0.3,0.4
				c-0.7,0.1-1.5,0.1-2.2-0.1c-0.9-0.2-1.5-0.8-1.5-1.8C96.5,28.6,96.5,27.9,96.5,27.1C96.5,27.1,96.5,27.1,96.5,27.1z"/>
			<path class="st6" d="M58.2,24.4c0-0.1,0.1-0.1,0.1-0.2c0.6-1,1.5-1.5,2.6-1.6c0.3,0,0.4,0.1,0.4,0.4c0,0.4,0,0.9,0,1.3
				c0,0.3-0.1,0.4-0.4,0.4c-0.4,0-0.8,0-1.2,0.1c-0.8,0.2-1.3,0.8-1.4,1.6c-0.1,0.3-0.1,0.7-0.1,1c0,1.1,0,2.2,0,3.3
				c0,0.3-0.1,0.4-0.4,0.4c-0.5,0-1,0-1.4,0c-0.3,0-0.4-0.1-0.4-0.4c0-2.5,0-5,0-7.5c0-0.3,0.1-0.4,0.4-0.4c0.5,0,0.9,0,1.4,0
				c0.3,0,0.4,0.1,0.4,0.4c0,0.3,0,0.6,0,0.9C58.1,24.2,58.1,24.3,58.2,24.4C58.1,24.4,58.2,24.4,58.2,24.4z"/>
			<path class="st6" d="M84.1,25.8c0-1.7,0-3.3,0-5c0-0.4,0.1-0.5,0.5-0.5c0.4,0,0.9,0,1.3,0c0.4,0,0.5,0.1,0.5,0.5
				c0,0.9,0,1.8,0,2.7c0,2.4,0,4.8,0,7.3c0,0.4-0.1,0.5-0.5,0.5c-0.5,0-0.9,0-1.4,0c-0.3,0-0.4-0.1-0.4-0.4
				C84.1,29.1,84.1,27.4,84.1,25.8z"/>
		</g>
	</g>
</g>
</svg>
